<?xml version="1.0" encoding="utf-8"?>
<!-- Generator: Adobe Illustrator 17.0.0, SVG Export Plug-In . SVG Version: 6.00 Build 0)  -->
<!DOCTYPE svg PUBLIC "-//W3C//DTD SVG 1.1//EN" "http://www.w3.org/Graphics/SVG/1.1/DTD/svg11.dtd">
<svg version="1.1" id="Layer_1" xmlns="http://www.w3.org/2000/svg" xmlns:xlink="http://www.w3.org/1999/xlink" x="0px" y="0px"
	 viewBox="0 0 459 459" enable-background="new 0 0 459 459" xml:space="preserve">
<path fill="#008DB6" d="M266.121,45.815c0-25.282-20.495-45.777-45.777-45.777S193,20.718,193,46c0,25.164,2.051,45.395,27,45.584
	v102.656c-15.785,4.135-27.433,18.494-27.433,35.576c0,3.482,0.494,6.847,1.399,10.04l-92.359,53.384
	c-14.248-10.84-34.176-12.726-50.646-3.207c-21.889,12.652-29.376,40.652-16.725,62.541c12.652,21.889,31.588,13.325,53.476,0.673
	c21.786-12.593,38.276-24.493,25.954-46.187l89.308-51.621c6.682,6.876,16.024,11.154,26.37,11.154
	c10.601,0,20.147-4.491,26.859-11.667l91.755,52.923c-2.265,17.759,6.064,35.961,22.543,45.466
	c21.9,12.632,49.894,5.118,62.526-16.782s-4.252-34.019-26.152-46.65c-21.798-12.573-40.348-20.904-52.976,0.613l-88.982-51.323
	c0.784-2.988,1.205-6.123,1.205-9.356c0-17.329-11.988-31.849-28.121-35.743V88.059C254.516,81.148,266.121,64.838,266.121,45.815z"
	/>
</svg>
